<?xml version="1.0" encoding="UTF-8" standalone="no"?>
<svg
   xmlns:dc="http://purl.org/dc/elements/1.1/"
   xmlns:cc="http://creativecommons.org/ns#"
   xmlns:rdf="http://www.w3.org/1999/02/22-rdf-syntax-ns#"
   xmlns:svg="http://www.w3.org/2000/svg"
   xmlns="http://www.w3.org/2000/svg"
   xmlns:sodipodi="http://sodipodi.sourceforge.net/DTD/sodipodi-0.dtd"
   xmlns:inkscape="http://www.inkscape.org/namespaces/inkscape"
   version="1.1"
   id="Layer_1"
   x="0px"
   y="0px"
   width="99.999001"
   height="38.5"
   viewBox="0 0 99.999001 38.5"
   enable-background="new 0 0 100 100"
   xml:space="preserve"
   inkscape:version="0.48.3.1 r9886"
   sodipodi:docname="noun_project_941.svg"><metadata
   id="metadata13"><rdf:RDF><cc:Work
       rdf:about=""><dc:format>image/svg+xml</dc:format><dc:type
         rdf:resource="http://purl.org/dc/dcmitype/StillImage" /><dc:title></dc:title></cc:Work></rdf:RDF></metadata><defs
   id="defs11" /><sodipodi:namedview
   pagecolor="#ffffff"
   bordercolor="#666666"
   borderopacity="1"
   objecttolerance="10"
   gridtolerance="10"
   guidetolerance="10"
   inkscape:pageopacity="0"
   inkscape:pageshadow="2"
   inkscape:window-width="1319"
   inkscape:window-height="716"
   id="namedview9"
   showgrid="false"
   fit-margin-top="0"
   fit-margin-left="0"
   fit-margin-right="0"
   fit-margin-bottom="0"
   showguides="true"
   inkscape:guide-bbox="true"
   inkscape:zoom="2.36"
   inkscape:cx="53.510578"
   inkscape:cy="19.25"
   inkscape:window-x="47"
   inkscape:window-y="28"
   inkscape:window-maximized="1"
   inkscape:current-layer="Layer_1" />
<g
   id="g3"
   transform="translate(0,-30.75)">
	<path
   d="m 58.199,37.5 c 0,0.255 -0.029,0.512 -0.086,0.764 L 57.39,43.682 66.168,40.5 H 99.59 l 0.409,-3 h -41.8 z"
   id="path5"
   inkscape:connector-curvature="0" />
</g>
<path
   d="M 28.008,0 C 12.54,0 0,3.021 0,6.75 l 3.311,24.798 c 1.546,3.169 11.057,6.952 24.698,6.952 13.641,0 23.077,-3.508 24.698,-6.952 L 56.017,6.75 C 56.016,3.021 43.476,0 28.008,0 z m 25.699,6.782 c -0.295,1.29 -8.644,4.739 -25.699,4.739 -17.056,0 -25.404,-3.449 -25.7,-4.761 0.295,-1.312 8.644,-4.761 25.7,-4.761 17.055,0 25.404,3.449 25.699,4.739 v 0.044 z"
   id="path7"
   inkscape:connector-curvature="0" />
</svg>